<svg width="521" height="323" viewBox="0 0 521 323" fill="none" xmlns="http://www.w3.org/2000/svg">
<path fill-rule="evenodd" clip-rule="evenodd" d="M46 0H72C74.762 0 77 2.238 77 5V113H41V5C41 2.239 43.238 0 46 0ZM41 211V317.715C41 320.477 43.238 322.715 46 322.715H72C74.762 322.715 77 320.477 77 317.715V211H41ZM90.999 211V317.715C90.999 320.477 93.237 322.715 95.999 322.715H117.999C120.761 322.715 122.999 320.477 122.999 317.715V211H90.999ZM138.999 211V317.715C138.999 320.477 141.237 322.715 143.999 322.715H154.999C157.761 322.715 159.999 320.477 159.999 317.715V211H138.999ZM159.999 113H138.999V5C138.999 2.239 141.237 0 143.999 0H154.999C157.761 0 159.999 2.238 159.999 5V113ZM171.187 211V317.715C171.187 320.477 173.425 322.715 176.187 322.715H188.812C191.574 322.715 193.812 320.477 193.812 317.715V211H171.187ZM193.812 113H171.187V5C171.187 2.239 173.425 0 176.187 0H188.812C191.574 0 193.812 2.238 193.812 5V113ZM215.187 211V317.715C215.187 320.477 217.425 322.715 220.187 322.715H240.812C243.574 322.715 245.812 320.477 245.812 317.715V211H215.187ZM245.812 113H215.187V5C215.187 2.239 217.425 0 220.187 0H240.812C243.574 0 245.812 2.238 245.812 5V113ZM259.186 211V317.715C259.186 320.477 261.424 322.715 264.186 322.715H274.499C277.262 322.715 279.499 320.477 279.499 317.715V211H259.186ZM279.499 113H259.186V5C259.186 2.239 261.424 0 264.186 0H274.499C277.262 0 279.499 2.238 279.499 5V113ZM292.513 211V317.715C292.513 320.477 294.75 322.715 297.513 322.715H310.32C313.082 322.715 315.32 320.477 315.32 317.715V211H292.513ZM315.32 113H292.513V5C292.513 2.239 294.75 0 297.513 0H310.32C313.082 0 315.32 2.238 315.32 5V113ZM347.186 211V317.715C347.186 320.477 349.424 322.715 352.186 322.715H362.5C365.262 322.715 367.5 320.477 367.5 317.715V211H347.186ZM367.5 113H347.186V5C347.186 2.239 349.424 0 352.186 0H362.5C365.262 0 367.5 2.238 367.5 5V113ZM391.539 211V317.715C391.539 320.477 393.775 322.715 396.539 322.715H418C420.762 322.715 423 320.477 423 317.715V211H391.539ZM423 113H391.539V5C391.539 2.239 393.775 0 396.539 0H418C420.762 0 423 2.238 423 5V113ZM439.539 211V317.715C439.539 320.477 441.777 322.715 444.539 322.715H475.281C478.045 322.715 480.281 320.477 480.281 317.715V211H439.539ZM480.281 113H439.539V5C439.539 2.239 441.777 0 444.539 0H475.281C478.043 0 480.281 2.238 480.281 5V113ZM122.999 113H90.999V5C90.999 2.239 93.237 0 95.999 0H117.999C120.761 0 122.999 2.238 122.999 5V113Z" fill="white"/>
<rect y="149" width="521" height="26" fill="white"/>
</svg>
